<mxfile host="65bd71144e">
    <diagram id="KjrErTVRP9iZeqJHBAPl" name="Page-1">
        <mxGraphModel dx="500" dy="825" grid="1" gridSize="10" guides="1" tooltips="1" connect="1" arrows="1" fold="1" page="1" pageScale="1" pageWidth="850" pageHeight="1100" math="0" shadow="0">
            <root>
                <mxCell id="0"/>
                <mxCell id="1" parent="0"/>
                <mxCell id="2" value="" style="pointerEvents=1;verticalLabelPosition=bottom;shadow=0;dashed=0;align=center;html=1;verticalAlign=top;shape=mxgraph.electrical.miscellaneous.batteryStack;" parent="1" vertex="1">
                    <mxGeometry x="460" y="210" width="100" height="60" as="geometry"/>
                </mxCell>
                <mxCell id="3" value="" style="pointerEvents=1;verticalLabelPosition=bottom;shadow=0;dashed=0;align=center;html=1;verticalAlign=top;shape=mxgraph.electrical.resistors.resistor_1;" parent="1" vertex="1">
                    <mxGeometry x="400" y="360" width="100" height="20" as="geometry"/>
                </mxCell>
                <mxCell id="4" value="" style="verticalLabelPosition=bottom;shadow=0;dashed=0;align=center;html=1;verticalAlign=top;shape=mxgraph.electrical.opto_electronics.led_2;pointerEvents=1;" parent="1" vertex="1">
                    <mxGeometry x="490" y="330" width="100" height="70" as="geometry"/>
                </mxCell>
                <mxCell id="5" value="" style="pointerEvents=1;verticalLabelPosition=bottom;shadow=0;dashed=0;align=center;html=1;verticalAlign=top;shape=mxgraph.electrical.electro-mechanical.2-way_switch;rotation=-180;" parent="1" vertex="1">
                    <mxGeometry x="325" y="367" width="75" height="26" as="geometry"/>
                </mxCell>
                <mxCell id="17" value="+" style="text;html=1;align=center;verticalAlign=middle;resizable=0;points=[];autosize=1;strokeColor=none;fillColor=none;" parent="1" vertex="1">
                    <mxGeometry x="240" y="350" width="20" height="20" as="geometry"/>
                </mxCell>
                <mxCell id="18" value="-" style="text;html=1;align=center;verticalAlign=middle;resizable=0;points=[];autosize=1;strokeColor=none;fillColor=none;" parent="1" vertex="1">
                    <mxGeometry x="110" y="370" width="20" height="20" as="geometry"/>
                </mxCell>
                <mxCell id="21" value="220 ohm" style="text;html=1;align=center;verticalAlign=middle;resizable=0;points=[];autosize=1;strokeColor=none;fillColor=none;" parent="1" vertex="1">
                    <mxGeometry x="420" y="400" width="60" height="20" as="geometry"/>
                </mxCell>
                <mxCell id="22" value="LED1&lt;br&gt;" style="text;html=1;align=center;verticalAlign=middle;resizable=0;points=[];autosize=1;strokeColor=none;fillColor=none;" parent="1" vertex="1">
                    <mxGeometry x="525" y="420" width="50" height="20" as="geometry"/>
                </mxCell>
                <mxCell id="23" value="5V" style="text;html=1;align=center;verticalAlign=middle;resizable=0;points=[];autosize=1;strokeColor=none;fillColor=none;" parent="1" vertex="1">
                    <mxGeometry x="155" y="420" width="30" height="20" as="geometry"/>
                </mxCell>
                <mxCell id="24" value="Cole Porter - TEJ3M - Unit #4-05" style="text;html=1;align=center;verticalAlign=middle;resizable=0;points=[];autosize=1;strokeColor=none;fillColor=none;" parent="1" vertex="1">
                    <mxGeometry x="130" y="480" width="190" height="20" as="geometry"/>
                </mxCell>
                <mxCell id="25" value="" style="shape=image;verticalLabelPosition=bottom;labelBackgroundColor=#ffffff;verticalAlign=top;aspect=fixed;imageAspect=0;image=data:image/png,iVBORw0KGgoAAAANSUhEUgAAAEwAAABICAIAAADTZIRqAAAMtUlEQVR4nM2beVBT1xfHH49smBiQfZUdIyLIUmqcQUkBLQVERq3VYpeoUArVTqV/1KIUnVqdaUdKSikMZbCLLWUplA5WsGlKYdJBSkKVLUhYghAhQBaSvJfl5fcH/pQmAZOXKH7+PO/e7zvn5d6X+84910an0wEW09jYyOfzT5w4sX79esvVrA7mSYgqFIqRkRE+ny8QCGZmZhYWFhYXFzUaDQiCBAKBTCY7Ozt7enr6+fmFhIS4ubk9CR+WY80gx8fH2Ww2k8nk8Xju7u6bNm3y9/ePiIhwcnIiEok4HA5BEKVSKRaLhUIhn89vbW0dGBiws7Oj0Wh79uyJjo4mEAhW9OchNhYOV5VKtbCwUFFRUVFRYWdnl5aW9uKLL8bGxtrb25uoMDg42NbW9uuvv0ql0pSUlAMHDvj6+uLxeBAELXFsOeiDlEgko6Ojf/zxR09PDw6HEwqFYWFh7777roeHBzrB4eHhlpaW3377bevWrTt37ty2bZuHh4etrS06teWgCVKhUHC53Pb2doFAQKFQkpKSKBSKUCgsLi6WSCSnTp2iUCioHZLL5Uwm8++//1ar1TExMfHx8a6urqjVljA7SKFQePXq1cnJyeeff55KpQYGBj68JJFIvv/++97e3uzs7KioKEvcEovFHA6nvb2dx+PR6fSEhARL1ACdOTCZzNTU1CtXrvD5fBiGDRtAENTY2Hj8+PF//vnHLGWjzM3NMZlMOp1+/vz5+/fvo9YxI0gGgxEcHMxisRAEWaUZgiA3btx45ZVXBgcHUbu1nJmZmby8vEOHDgkEAnQKjw9Sq9VOTk4WFRXl5eWJxWITdZubmzMzM3t7ezUaDTrPliOXyysqKl577bW+vj61Wm1ud9uPPvpo9cE8ODhYXl5OIpHy8/M3bNhg4iwICQkhkUgMBgOLxfr6+mKxWEvmFBaLjY6OxuPxJSUlGAzGz8/PLMHHBDk8PPzpp58GBga++eabTk5OZnkWGBjo7e1dU1MzMzMTEhKCx+PN6m5IcHCwj49PTU2NWCymUChmxLnKrywQCJKTk7/44gvTR6kht2/fzsnJ+eSTTxYWFlCLLIfL5ebk5Hz33XdG33xGWTFIqVSanp5eXFxsupZREAQZHh4+cuRIUVGRXC63RGoJrVbb3d1Np9PZbLaJXYwHCUHQuXPnioqKLPdpiYmJiYMHD1orTp1O19raSqfTx8fHTWlsZH0Iw3BtbS0MwydPnrRwFj3Ex8enpKRkamrqwoULk5OTlgsmJSVt37794sWLCwsLj22sH6ROp+vt7e3s7Dx48KDpi2xTcHd3v3TpEplMZjAYQ0NDhg3EYvG9e/dMFzx8+LBOpysrK3t8U71fViKRFBYWVlZWKpVKq4wrPeRy+bfffpufnz8wMKB3qbi4ODk52Sy1iYmJ/fv3M5nM1ZvpB9nU1JSdnS2Tycy6mVlAEFRTU5OdnT0yMrLcnpWVhcFgzFXr6OhIS0tbfdEH6v2qZWVlhw8fJpFIpg8bc8Hj8S+//DKNRsvNzTVrfBolJiYmMjKyubl5lTb/CbK0tDQoKGjXrl0W3tgUDh06lJWVdfToURaLBcMwah08Hr9v3z4OhzMyMrJSm0fpD6FQWFtbW15ejvp+5pKRkbF+/fqvvvpqampq7969qHUCAgK8vb1v3brl6+uLwRhJ6Dwy1dfXU6lUS753UZCYmEggEKqqqiQSiUwmQydib28fFRX1559/0mg0o2mxB8N16cstKysLvb9ooVKpOTk5XV1dPT09OrS5mJiYmOnp6dHRUaNXHwTZ1dUVEBDg6emJ0lMLsLW1jY6OLigocHJyQhAEnYijo2NMTExHR4fRxwQCAIAgyK1bt6Kjoy38IEINCIKBgYEUCsWSDF18fDybzdZoNEb0AQCYmpoSi8WbN2+2SmoMNRgMxsbGBnX30NBQtVp9584dw0sgAADj4+MkEsnZ2Rm9g88GCQkJTU1NhnYQAACBQEAikRwdHZ+6V1YmLi7u+vXrhnYQgqCZmRk3N7cnlKJ/mmzdunV0dFQsFuvZQblcvri46O7ubsl8eEbAYrHh4eEDAwN6dlChUCgUChcXlzVxy+pERETweDw9IwjDsFKpND0N94wTEhIyNjamZwRVKpVKpXo2N09RsHHjRqFQqGcENRqNWq22s7NbE5+sjqurq2FCBEQQRKvVrtVax+qQSCSlUqlnxCwt9qy442khISEhlnRXqVRzc3N6IhgbGxsQBLVardEvsaeP4bvRLPr7+8+cOdPY2LjcCNra2oIgqFKpLPPtWUEqlRrmbkAMBoPFYhUKxZr4ZHXu379vuGcD4vF4PB4vlUrXxCerMzY2ZvhVDBIIBDs7u/n5+TXxyer09/f7+/vrGcF169atW7dudnZ2TXyyOhwOZ9OmTXpGkEgkOjg4TE9Po049PDtIJJJ79+4FBQXp2UEsFuvm5iYSieRy+Zp4ZkU4HE54eDiRSNSzgwAAeHt7y+Xyubm5tXDMmrS3tycnJxvaQQAA/P39ZTKZSCR66l5ZmZs3b2ZkZBjaQQAAnJ2dfXx8uFyu0VTX00GtVi/tz6JWYLPZfn5+Xl5ehpceLFl37NjR1dW1VuseCIJu3rzZ19eH+uWHIAiTyYyLizOa33gQZHh4uEql4nK56D1FCwzDTU1NNTU1OBwO9XfC5OTkxMREbGzsakGSSKSUlBSTdm2tTV1dXX19fWZmZmhoKOo8U3d3t6en58aNG41effTk0tPTx8bGOjs70d0GHV9//XVVVdWZM2doNBoOh0MnMjMz09PTExsb6+DgYLTBoyBxOFx+fn5JScnTmZkQBDEYjG+++aa6unrbtm2ok/c6nW5oaEgqlUZFRa00EP4zB9LT04lEYkNDA7r7mc7c3Fx5efndu3d//vlnHx8fS6QkEkltbW1iYuIqtez6E/348eMsFmulPTCrIBKJqqurFQrFhx9+aHnavqmpSaPRrL47rh9kZGTkli1bfvjhhyf08TU/P//555/b2NgcO3ZMryQ5NTW1oKDALLXu7u4ff/zxvffee0w1jmGtBI/He+utt9ra2lava0XB9PT0gQMHPvvsM4lEYngVhmGz6rVEItGuXbvq6uoe29J42dmNGzfeeOMNoVBo+i0NGRoa2rNnT0dHx9LDunv3LpVKZTAYlmg+BEGQgoKCwsJCUxqvWEBYVlaWm5s7OzuLzonFxcVTp06dPXt2+/btv/zyC4vFysjIqKqqQqemh1KpvHr16unTp00s31wxyKUXQ25u7uTkpLlOIAjy008/vfPOOxAEtba2pqSkJCYmVlZWQhBkrpQhMAw3NDScPHnSsKZrJVZcRtnZ2Z0+fZpEIl2+fHliYsKs98HY2Bibzc7IyMDhcPHx8W+//TaZTCaTyVbJ7l6/fr2lpWX//v3BwcGm9ln9GYhEovPnz+fm5o6NjZn42BQKBYPBuHTp0sPaNQiCWlpa9u7d29bWZqLISly7di0jI+Ovv/5SqVSm93p8of38/PzFixePHTs2NTVliiKPx8vKyuJwOMuNo6OjR48epdPppntmSGlp6QsvvDAyMqLVas3qaNKRCQiCvvzyyyNHjvT19a0+r9Rq9blz50pLSx92nJiYKCkpeemlly5cuICuLnHpOENhYeGJEycUCgUKBTNO+DQ3N1dWVu7evTs9Pd3Ly8voQrGzs/PKlSsMBoNMJvP5/Pb2di6X6+XllZmZaZhfMgUYhtlsdm1trYuLS15eHrrqDfOOMQ0MDNTU1EAQtGPHDhqNprerOT09/frrr7///vsODg4sFksoFHp5eSUkJERERKDwDACA27dvNzQ0yGSyuLg4Go1GJpPR6Zh9Vksmk7W3t//+++82Njbp6ek7d+58eOns2bMjIyO+vr7z8/NUKvW5557bvHkzujeqQCCoq6sbGBgIDQ1NS0tbfiIMDSiGuEajmZ2dra+vT0tLe/XVV5eKvaqrq4ODg0NDQysrK6emplCfQRCLxZcvX05LS/v44495PJ5V/lrRBLmcurq6xMTEyMjIqKio3bt3wzCs0WjMWvRqtVqVSgVBEJvNzsvL8/Dw+OCDD/h8voWOLcfSk7AAAEAQVF5efu3aNXt7+y1btoSFhQUFBTk7Oy9tQBAIBCwWu7RBqNPpEARRq9UwDC8tx2Uy2fj4eH9//7///ovFYpOSklJTU61eG2aFIIH/n07ft28fn8+/c+fO+Pg4AABEIpFAIODxeAwGszxIjUaz9NMplUqFQrFhw4awsLCIiIiAgADUGZDVsebusouLS0BAQGJiokqlEolEIpFoYWFBJpMplUoYhrVaLQiCGAyGQCCQSCR7e3tHR0dXV1fU70zT+R+YjvH/x0SPdQAAAABJRU5ErkJggg==;" vertex="1" parent="1">
                    <mxGeometry x="164" y="170" width="76" height="72" as="geometry"/>
                </mxCell>
            </root>
        </mxGraphModel>
    </diagram>
</mxfile>